<svg width="38" height="38" viewBox="0 0 38 38" fill="none" xmlns="http://www.w3.org/2000/svg">
<path d="M36.4998 8.72416C35.2719 9.26803 33.9514 9.63061 32.5581 9.80241C33.9744 8.96166 35.0645 7.62057 35.5759 6.03566C34.2506 6.81228 32.7821 7.38307 31.2201 7.68391C29.9725 6.36182 28.1928 5.54166 26.2216 5.54166C22.435 5.54166 19.3649 8.58403 19.3649 12.3357C19.3649 12.8669 19.4275 13.3839 19.5439 13.8858C13.847 13.6 8.79381 10.8917 5.4134 6.78141C4.81965 7.78603 4.48556 8.96166 4.48556 10.203C4.48556 12.5614 5.69286 14.6379 7.53427 15.861C6.41011 15.827 5.35244 15.5143 4.42619 15.0124C4.42619 15.0329 4.42619 15.063 4.42619 15.0923C4.42619 18.388 6.79011 21.1327 9.92352 21.7574C9.35115 21.9141 8.74552 22.0012 8.12169 22.0012C7.67915 22.0012 7.24769 21.9513 6.82969 21.8761C7.70211 24.5694 10.2331 26.5382 13.2319 26.5968C10.8854 28.4161 7.93011 29.5054 4.71673 29.5054C4.16177 29.5054 3.61869 29.4737 3.08194 29.4088C6.11956 31.3318 9.72402 32.4583 13.5937 32.4583C26.2026 32.4583 33.1011 22.1041 33.1011 13.1211C33.1011 12.8266 33.0916 12.5337 33.0782 12.2439C34.424 11.2931 35.5838 10.0945 36.4998 8.72416Z" fill="url(#paint0_linear_8_2)"/>
<defs>
<linearGradient id="paint0_linear_8_2" x1="8.18661" y1="6.58032" x2="32.2984" y2="30.6921" gradientUnits="userSpaceOnUse">
<stop stop-color="#FAFDFF"/>
<stop offset="1" stop-color="#FBFDFF"/>
</linearGradient>
</defs>
</svg>
